# xmcd CD database file
#
# Track frame offsets:
#	150
#	42150
#	58926
#	108176
#	136565
#	148853
#	181433
#	237853
#	256792
#	267538
#	293381
#
# Disc length: 4352 seconds
#
# Revision: 0
# Processed by: cddbd v1.5.2PL0 Copyright (c) Steve Scherf et al.
# Submitted via: CDex 1.70beta2
#
DISCID=9a10fe0b
DTITLE=David Torn - Prezens
DYEAR=2007
DGENRE=Jazz
TTITLE0=Ak
TTITLE1=Rest and Unrest
TTITLE2=Structural Functions Of Prezens
TTITLE3=Bulbs
TTITLE4=Them Buried Standing
TTITLE5=Sink
TTITLE6=Neck-Deep In The Harrow...
TTITLE7=Ever More Other
TTITLE8=Ring For Endless Travel
TTITLE9=Miss Place, The Mist...
TTITLE10=Transmit Regardless
EXTD=YEAR: 2007
EXTT0=
EXTT1=
EXTT2=
EXTT3=
EXTT4=
EXTT5=
EXTT6=
EXTT7=
EXTT8=
EXTT9=
EXTT10=
PLAYORDER=
